<svg width="101" height="17" fill="none" xmlns="http://www.w3.org/2000/svg"><g clip-path="url(#clip0)"><path d="M65.447.869h-8.204c-.091 0-.137.046-.137.138-.228 3.735-.911 7.793-1.914 11.066v.139c.046.046.091.046.137.046h2.825c.046 0 .137-.046.137-.092.775-2.536 1.413-5.856 1.64-8.669h2.69v8.623c0 .092.045.138.137.138h2.689c.09 0 .136-.046.136-.138V1.053c0-.092-.045-.184-.136-.184zm34.683 0h-2.69c-.09 0-.136.046-.136.138v8.577c-.593.184-1.185.23-1.823.23-1.777 0-2.188-.553-2.188-2.95v-5.81c0-.093-.045-.139-.136-.139h-2.69c-.09 0-.136.046-.136.138v6.179c0 3.873 1.276 5.395 4.603 5.395 1.869 0 4.01-.507 5.241-.969.046 0 .091-.092.091-.138V1.053c0-.092-.045-.184-.136-.184zM43.388.915h-2.735c-.09 0-.136.046-.136.092-.41 1.706-1.277 4.565-2.462 7.562L35.322.961c0-.046-.091-.092-.137-.092H32.45c-.046 0-.091.046-.137.046-.046.046-.046.092 0 .138l4.102 11.343c-.41.876-.82 1.614-1.185 2.306a46.927 46.927 0 00-.82 1.567c-.046.047 0 .093 0 .139.045.046.09.092.136.092h2.963c.045 0 .09-.046.136-.092.502-.969 1.14-2.352 1.732-3.735 1.732-4.15 3.145-8.023 4.193-11.574 0-.046 0-.092-.045-.138-.046-.046-.091-.046-.137-.046zM53.14 9.63c0-.046-.045-.093-.091-.093h-.137c-.638.231-1.868.462-2.734.462-1.869 0-2.735-.508-2.735-3.413 0-2.305.274-3.412 2.735-3.412.683 0 1.367.093 2.187.37.092 0 .137 0 .183-.093.319-.6.683-1.291 1.093-2.213v-.139c0-.046-.045-.092-.09-.092-1.094-.369-2.416-.553-3.556-.553-3.92 0-5.651 1.844-5.651 6.04 0 4.242 1.732 6.133 5.651 6.133.957 0 2.917-.23 3.829-.6.09-.046.09-.092.09-.184L53.14 9.63zM78.618.915h-2.735c-.045 0-.136.046-.136.092-.41 1.706-1.276 4.565-2.461 7.562L70.55.961c0-.046-.091-.092-.137-.092H67.68c-.046 0-.091.046-.137.046-.046.046-.046.092 0 .138l4.102 11.343c-.41.876-.82 1.568-1.185 2.306a48.812 48.812 0 00-.82 1.567c-.046.047 0 .093 0 .139.045.046.09.092.136.092h2.963c.045 0 .09-.046.136-.092.502-.969 1.14-2.352 1.732-3.735 1.732-4.15 3.145-8.023 4.148-11.574 0-.046 0-.092-.046-.138 0-.046-.046-.046-.091-.046zM88.645.869h-7.93c-.092 0-.137.046-.137.138V12.12c0 .092.045.138.136.138h2.69c.09 0 .136-.046.136-.138V3.543h4.147c.046 0 .137-.046.137-.092.32-.738.638-1.568.957-2.352V.961c-.045-.046-.09-.092-.136-.092z" fill="#EE3F58"/><path d="M14.265 10.09c-1.777 0-2.324-.506-2.324-3.504 0-3.227.592-3.504 2.324-3.504 1.732 0 2.37.277 2.37 3.504 0 3.044-.592 3.505-2.37 3.505zm0-9.544c-3.874 0-5.378 1.66-5.378 5.994 0 4.38 1.504 6.087 5.378 6.087S19.69 10.92 19.69 6.54c0-4.288-1.55-5.994-5.424-5.994zM30.353 9.63c0-.046-.045-.093-.09-.093h-.137c-.639.231-1.869.462-2.735.462-1.869 0-2.734-.508-2.734-3.413 0-2.305.273-3.412 2.734-3.412.684 0 1.367.093 2.188.37.045 0 .136 0 .182-.093.319-.6.684-1.291 1.094-2.213v-.139c0-.046-.046-.092-.091-.092C29.715.684 28.394.5 27.254.5c-3.92 0-5.651 1.844-5.651 6.04 0 4.242 1.732 6.133 5.651 6.133.957 0 2.917-.23 3.829-.6.09-.046.09-.092.09-.184l-.82-2.26zM8.067.869H.137C.046.869 0 .96 0 1.053v11.113c0 .092.046.138.137.138h2.689c.09 0 .136-.046.136-.138V3.543H7.11c.045 0 .091-.046.137-.092.319-.738.638-1.568.957-2.352V.961C8.158.915 8.112.87 8.067.87z" fill="#0065B1"/></g><defs><clipPath id="clip0"><path fill="#fff" transform="translate(0 .5)" d="M0 0h100.267v16H0z"/></clipPath></defs></svg>